<svg xmlns="http://www.w3.org/2000/svg" viewBox="0 0 1200 720" role="img" aria-label="Ms Shirley Daily English classroom">
  <defs>
    <linearGradient id="bg" x1="0" x2="1" y1="0" y2="1">
      <stop offset="0" stop-color="#e8f7f0"/>
      <stop offset=".55" stop-color="#fff6d8"/>
      <stop offset="1" stop-color="#e9f1ff"/>
    </linearGradient>
    <filter id="shadow" x="-20%" y="-20%" width="140%" height="140%">
      <feDropShadow dx="0" dy="14" stdDeviation="16" flood-color="#12313d" flood-opacity=".16"/>
    </filter>
  </defs>
  <rect width="1200" height="720" fill="url(#bg)"/>
  <path d="M0 545c155-90 286-72 416-34 156 45 287 59 431-40 117-81 231-72 353-15v264H0z" fill="#bfe2d0"/>
  <text x="84" y="112" fill="#14646b" font-family="Arial, sans-serif" font-size="52" font-weight="800">Ms Shirley</text>
  <text x="84" y="166" fill="#20333b" font-family="Arial, sans-serif" font-size="40" font-weight="800">Daily English Games</text>
  <g filter="url(#shadow)">
    <rect x="692" y="88" width="344" height="210" rx="24" fill="#fff"/>
    <text x="728" y="159" fill="#20333b" font-family="Arial, sans-serif" font-size="34" font-weight="800">Can I have</text>
    <text x="728" y="205" fill="#20333b" font-family="Arial, sans-serif" font-size="34" font-weight="800">less sugar?</text>
    <path d="M770 298l-54 58 16-72" fill="#fff"/>
  </g>
  <g filter="url(#shadow)">
    <rect x="166" y="250" width="330" height="164" rx="24" fill="#fff"/>
    <text x="202" y="315" fill="#20333b" font-family="Arial, sans-serif" font-size="32" font-weight="800">Sure, please</text>
    <text x="202" y="360" fill="#20333b" font-family="Arial, sans-serif" font-size="32" font-weight="800">repeat after me.</text>
    <path d="M406 414l42 54-12-66" fill="#fff"/>
  </g>
  <ellipse cx="606" cy="604" rx="360" ry="58" fill="#7dbb99"/>
  <rect x="366" y="408" width="480" height="138" rx="20" fill="#f1b356" filter="url(#shadow)"/>
  <rect x="432" y="356" width="144" height="112" rx="18" fill="#fff"/>
  <path d="M458 388h88M458 417h68M458 446h96" stroke="#35738a" stroke-width="9" stroke-linecap="round"/>
  <rect x="638" y="346" width="154" height="116" rx="18" fill="#23485f"/>
  <rect x="660" y="370" width="110" height="68" rx="9" fill="#d8f7ff"/>
  <circle cx="438" cy="329" r="54" fill="#543728"/>
  <circle cx="438" cy="314" r="40" fill="#ffd0a6"/>
  <path d="M392 318c14-48 70-70 106-25-30 4-57-4-82-22-6 17-14 33-24 47z" fill="#463024"/>
  <path d="M388 430c17-62 84-82 132-45 26 20 38 51 33 88H356c1-18 11-33 32-43z" fill="#2f6f9f"/>
  <circle cx="422" cy="316" r="5" fill="#17313a"/>
  <circle cx="458" cy="316" r="5" fill="#17313a"/>
  <path d="M421 338c11 9 25 9 37 0" stroke="#17313a" stroke-width="5" stroke-linecap="round" fill="none"/>
  <circle cx="724" cy="329" r="54" fill="#2f3439"/>
  <circle cx="724" cy="315" r="40" fill="#f8c79c"/>
  <path d="M682 317c0-43 31-68 72-55 18 6 31 21 35 42-28-2-57-10-84-28-6 16-13 28-23 41z" fill="#20252a"/>
  <path d="M674 431c14-61 82-84 132-46 27 20 38 52 31 88H646c2-18 11-33 28-42z" fill="#4f8d5b"/>
  <circle cx="708" cy="317" r="5" fill="#17313a"/>
  <circle cx="744" cy="317" r="5" fill="#17313a"/>
  <path d="M707 339c11 9 25 9 37 0" stroke="#17313a" stroke-width="5" stroke-linecap="round" fill="none"/>
</svg>
